<svg width="68" height="84" viewBox="0 0 68 84" fill="none" xmlns="http://www.w3.org/2000/svg">
<path d="M59 0.333344H9.00002C4.40419 0.333344 0.666687 4.07084 0.666687 8.66668V79.5C0.666687 80.6051 1.10567 81.6649 1.88708 82.4463C2.66848 83.2277 3.72828 83.6667 4.83335 83.6667H63.1667C64.2718 83.6667 65.3316 83.2277 66.113 82.4463C66.8944 81.6649 67.3334 80.6051 67.3334 79.5V8.66668C67.3334 4.07084 63.5959 0.333344 59 0.333344ZM59 75.3333H9.00002V8.66668H59V75.3333Z" fill="#EF2D56"/>
<path d="M17.3333 17H29.8333V25.3333H17.3333V17ZM38.1666 17H50.6666V25.3333H38.1666V17ZM17.3333 33.6667H29.8333V42H17.3333V33.6667ZM38.1666 33.7958H50.6666V42H38.1666V33.7958ZM17.3333 50.3333H29.8333V58.6667H17.3333V50.3333ZM38.1666 50.3333H50.6666V58.6667H38.1666V50.3333Z" fill="#EF2D56"/>
</svg>
