<svg width="80" height="80" viewBox="0 0 80 80" fill="none" xmlns="http://www.w3.org/2000/svg">
<path d="M43 35C41 34.5 39 33.5 37.5 32C36 31.5 35.5 30 35.5 29C35.5 28 36 26.5 37 26C38.5 25 40 24 41.5 24.5C44.5 24.5 47 26 48.5 28L53 22C51.5 20.5 50 19.5 48.5 18.5C47 17.5 45 17 43 17V10H37V17C34.5 17.5 32 19 30 21C28 23.5 26.5 26.5 27 29.5C27 32.5 28 35.5 30 37.5C32.5 40 36 41.5 39 43C40.5 43.5 42.5 44.5 44 45.5C45 46.5 45.5 48 45.5 49.5C45.5 51 45 52.5 44 54C42.5 55.5 40.5 56 39 56C37 56 34.5 55.5 33 54C31.5 53 30 51.5 29 50L24 55.5C25.5 57.5 27 59 29 60.5C31.5 62 34.5 63.5 37.5 63.5V70H43V62.5C46 62 48.5 60.5 50.5 58.5C53 56 54.5 52 54.5 48.5C54.5 45.5 53.5 42 51 40C48.5 37.5 46 36 43 35V35ZM40 0C18 0 0 18 0 40C0 62 18 80 40 80C62 80 80 62 80 40C80 18 62 0 40 0ZM40 74.5C21 74.5 5.5 59 5.5 40C5.5 21 21 5.5 40 5.5C59 5.5 74.5 21 74.5 40C74.5 59 59 74.5 40 74.5V74.5Z" fill="#307351"/>
</svg>
