<svg width="125" height="67" viewBox="0 0 125 67" fill="none" xmlns="http://www.w3.org/2000/svg">
<path d="M34.375 38C42.9902 38 50 30.9902 50 22.375C50 13.7598 42.9902 6.75 34.375 6.75C25.7598 6.75 18.75 13.7598 18.75 22.375C18.75 30.9902 25.7598 38 34.375 38ZM103.125 13H59.375C57.6484 13 56.25 14.3984 56.25 16.125V44.25H12.5V3.625C12.5 1.89844 11.1016 0.5 9.375 0.5H3.125C1.39844 0.5 0 1.89844 0 3.625V72.375C0 74.1016 1.39844 75.5 3.125 75.5H9.375C11.1016 75.5 12.5 74.1016 12.5 72.375V63H112.5V72.375C112.5 74.1016 113.898 75.5 115.625 75.5H121.875C123.602 75.5 125 74.1016 125 72.375V34.875C125 22.793 115.207 13 103.125 13Z" fill="#3185FC"/>
</svg>
