<svg width="76" height="80" viewBox="0 0 76 80" fill="none" xmlns="http://www.w3.org/2000/svg">
<path d="M38 1.70842e-07C34.1301 -0.000540308 30.3691 1.28133 27.305 3.64519C24.2409 6.00905 22.0466 9.32163 21.065 13.065C16.8257 14.1758 13.1572 16.8363 10.7844 20.5208C8.41168 24.2054 7.50731 28.6459 8.25001 32.965C5.13346 35.0547 2.77111 38.0908 1.51148 41.6253C0.251858 45.1599 0.161665 49.0057 1.25421 52.5954C2.34676 56.1851 4.56418 59.3286 7.57934 61.5621C10.5945 63.7956 14.2477 65.0009 18 65H28V73.75C28 77.2 30.8 80 34.25 80H41.75C45.2 80 48 77.2 48 73.75V65H58C61.7523 65.0009 65.4055 63.7956 68.4207 61.5621C71.4358 59.3286 73.6533 56.1851 74.7458 52.5954C75.8384 49.0057 75.7482 45.1599 74.4885 41.6253C73.2289 38.0908 70.8666 35.0547 67.75 32.965C68.4927 28.6459 67.5883 24.2054 65.2156 20.5208C62.8429 16.8363 59.1744 14.1758 54.935 13.065C53.9534 9.32163 51.7591 6.00905 48.695 3.64519C45.6309 1.28133 41.8699 -0.000540308 38 1.70842e-07V1.70842e-07ZM33 65H43V73.75C43 74.0815 42.8683 74.3995 42.6339 74.6339C42.3995 74.8683 42.0815 75 41.75 75H34.25C33.9185 75 33.6005 74.8683 33.3661 74.6339C33.1317 74.3995 33 74.0815 33 73.75V65Z" fill="#FC440F"/>
</svg>
